<?xml version="1.0" encoding="UTF-8" standalone="no"?>
<!-- Created with Inkscape (http://www.inkscape.org/) -->

<svg
   width="55mm"
   height="54.999996mm"
   viewBox="0 0 55 54.999996"
   version="1.1"
   id="svg1"
   xml:space="preserve"
   xmlns="http://www.w3.org/2000/svg"
   xmlns:svg="http://www.w3.org/2000/svg"><defs
     id="defs1" /><g
     id="layer1"><g
       id="g164"
       transform="translate(-1.04e-5,0.11693765)"><path
         id="path24"
         style="mix-blend-mode:normal;fill:#da121a;fill-opacity:1;fill-rule:nonzero;stroke:#000000;stroke-width:2;stroke-linecap:round;stroke-linejoin:round;stroke-dasharray:none;stroke-opacity:1;paint-order:normal"
         d="M 7.4999398,4.8831437 V 29.883168 A 20,20 0 0 0 27.500268,49.882981 20,20 0 0 0 47.500081,29.883168 V 4.8831437 Z" /><path
         id="circle149"
         style="fill:#fcdd09;fill-opacity:1;stroke:#000000;stroke-width:1;stroke-linecap:round;stroke-linejoin:round;stroke-dasharray:none;stroke-opacity:1;paint-order:normal"
         d="m 14.713968,9.1826224 c -1.25962,1.379e-4 -2.280628,1.0213786 -2.280481,2.2809976 1.38e-4,1.259418 1.021063,2.280343 2.280481,2.280481 1.25962,1.48e-4 2.28086,-1.020861 2.280998,-2.280481 1.47e-4,-1.259821 -1.021177,-2.2811453 -2.280998,-2.2809976 z m 8.400004,0 c -1.25962,1.379e-4 -2.280628,1.0213786 -2.280481,2.2809976 1.38e-4,1.259418 1.021063,2.280343 2.280481,2.280481 1.25962,1.48e-4 2.28086,-1.020861 2.280998,-2.280481 1.47e-4,-1.259821 -1.021177,-2.2811453 -2.280998,-2.2809976 z m 8.400004,0 c -1.259619,1.384e-4 -2.280627,1.0213786 -2.28048,2.2809976 1.38e-4,1.259417 1.021063,2.280343 2.28048,2.280481 1.25962,1.48e-4 2.28086,-1.020861 2.280998,-2.280481 1.47e-4,-1.259821 -1.021177,-2.2811453 -2.280998,-2.2809976 z m 8.400005,0 c -1.25962,1.379e-4 -2.280628,1.0213786 -2.280481,2.2809976 1.38e-4,1.259418 1.021063,2.280343 2.280481,2.280481 1.259619,1.47e-4 2.280859,-1.020862 2.280997,-2.280481 1.47e-4,-1.259821 -1.021176,-2.2811447 -2.280997,-2.2809976 z M 14.713968,21.325034 c -1.259418,1.38e-4 -2.280343,1.021063 -2.280481,2.280481 -1.48e-4,1.25962 1.020861,2.28086 2.280481,2.280998 1.259822,1.48e-4 2.281146,-1.021176 2.280998,-2.280998 -1.38e-4,-1.25962 -1.021378,-2.280629 -2.280998,-2.280481 z m 25.223267,0 c -1.259418,1.38e-4 -2.280343,1.021063 -2.280481,2.280481 -1.48e-4,1.25962 1.020861,2.28086 2.280481,2.280998 1.259822,1.48e-4 2.281146,-1.021176 2.280998,-2.280998 -1.38e-4,-1.25962 -1.021378,-2.280629 -2.280998,-2.280481 z m -25.223267,7.744747 c -1.259418,1.38e-4 -2.280343,1.021064 -2.280481,2.280481 -1.47e-4,1.25962 1.020862,2.280859 2.280481,2.280997 1.259821,1.48e-4 2.281145,-1.021175 2.280998,-2.280997 -1.38e-4,-1.259619 -1.021378,-2.280628 -2.280998,-2.280481 z m 25.223267,0 c -1.259418,1.38e-4 -2.280343,1.021064 -2.280481,2.280481 -1.47e-4,1.25962 1.020862,2.280859 2.280481,2.280997 1.259821,1.48e-4 2.281145,-1.021175 2.280998,-2.280997 -1.38e-4,-1.259619 -1.021378,-2.280628 -2.280998,-2.280481 z m -20.306254,8.671305 c -1.25962,-1.48e-4 -2.28086,1.020861 -2.280998,2.280481 -1.48e-4,1.259822 1.021176,2.281146 2.280998,2.280998 1.25962,-1.38e-4 2.280629,-1.021378 2.280481,-2.280998 -1.38e-4,-1.259418 -1.021063,-2.280343 -2.280481,-2.280481 z m 15.738057,0 c -1.259418,1.38e-4 -2.280343,1.021063 -2.280481,2.280481 -1.48e-4,1.25962 1.020861,2.28086 2.280481,2.280998 1.259822,1.48e-4 2.281146,-1.021176 2.280998,-2.280998 -1.38e-4,-1.25962 -1.021378,-2.280629 -2.280998,-2.280481 z m -7.869287,3.280937 c -1.259418,1.38e-4 -2.280343,1.021063 -2.280481,2.280481 -1.48e-4,1.25962 1.020861,2.28086 2.280481,2.280998 1.259822,1.48e-4 2.281146,-1.021176 2.280998,-2.280998 -1.38e-4,-1.25962 -1.021378,-2.280629 -2.280998,-2.280481 z" /><path
         d="m 12.874794,16.41964 v 1.149284 1.148767 h 0.422197 c 1.139305,0 3.178616,0.243254 4.474145,0.533818 3.255173,0.730074 6.014322,2.238777 8.195366,4.455542 -1.635645,2.130563 -2.890658,4.69787 -3.716569,7.643461 h 2.376599 c 0.227162,-0.734475 0.480023,-1.445329 0.760677,-2.102197 0.586208,-1.372013 1.293671,-2.618062 2.113049,-3.734656 0.819373,1.116587 1.526331,2.362654 2.112533,3.734656 0.280654,0.656868 0.533516,1.367722 0.760678,2.102197 h 2.376598 c -0.825908,-2.945591 -2.080924,-5.512898 -3.716568,-7.643461 2.181044,-2.216763 4.940195,-3.725468 8.195365,-4.455542 1.295532,-0.290564 3.334843,-0.533818 4.474145,-0.533818 h 0.422196 V 17.568924 16.41964 h -0.233576 c -0.128681,0 -0.680833,0.02852 -1.226799,0.06356 -2.684324,0.172201 -4.987238,0.657468 -7.141166,1.504301 -2.29546,0.902474 -4.314573,2.240093 -6.023405,3.962032 -1.70883,-1.721939 -3.72846,-3.059558 -6.023921,-3.962032 -2.153926,-0.846833 -4.45684,-1.3321 -7.141167,-1.504301 -0.545964,-0.03503 -1.098116,-0.06356 -1.226798,-0.06356 z"
         style="fill:#fcdd09;stroke:#000000;stroke-linecap:round;stroke-linejoin:round"
         id="path164" /></g><g
       id="g153"><path
         id="path7"
         style="fill:#ffffff;fill-opacity:1;stroke:#ffffff;stroke-width:5;stroke-linecap:round;stroke-linejoin:round;stroke-dasharray:none;stroke-opacity:1;paint-order:normal"
         d="m 29.468456,20.257643 a 8.9142504,8.9142513 0 0 0 -8.914185,8.914184 8.9142504,8.9142513 0 0 0 8.914185,8.914185 8.9142504,8.9142513 0 0 0 4.785754,-1.397331 l 1.627808,1.627291 11.880412,14.184147 4.737695,-4.735628 -14.310754,-11.755355 -1.532206,-1.603003 a 8.9142504,8.9142513 0 0 0 1.725476,-5.234306 8.9142504,8.9142513 0 0 0 -8.914185,-8.914184 z" /><path
         d="m 36.652919,34.40161 a 8.9142504,8.9142513 0 0 1 -2.409155,2.276864 L 35.881907,38.3161 47.762319,52.500247 52.500014,47.764619 38.18926,36.009264 Z"
         style="fill:#939393;fill-opacity:1;stroke:#bdbdbd;stroke-width:2;stroke-linecap:round;stroke-linejoin:round;stroke-dasharray:none;stroke-opacity:1;paint-order:normal"
         id="path8" /><ellipse
         style="fill:#b85b61;fill-opacity:1;stroke:#bcbcbc;stroke-width:2;stroke-linecap:round;stroke-linejoin:round;stroke-dasharray:none;stroke-opacity:1;paint-order:normal"
         id="ellipse8"
         cx="29.468519"
         cy="29.171829"
         rx="8.9142504"
         ry="8.9142513" /></g></g></svg>
